<svg width="255" height="52" viewBox="0 0 255 52" fill="none" xmlns="http://www.w3.org/2000/svg">
<path d="M57.9382 40.4731V42.4519H60.0942V43.0889H57.9382V45.1272H60.3489V45.7642H57.1657V39.8361H60.3489V40.4731H57.9382Z" fill="#333333"/>
<path d="M68.7159 45.7642H67.9435L64.8367 41.0506V45.7642H64.0642V39.8361H64.8367L67.9435 44.5412V39.8361H68.7159V45.7642Z" fill="#333333"/>
<path d="M77.0611 41.5602C76.897 41.2148 76.6593 40.9487 76.3481 40.7618C76.0369 40.5693 75.6747 40.4731 75.2616 40.4731C74.8485 40.4731 74.475 40.5693 74.1411 40.7618C73.8129 40.9487 73.5526 41.2204 73.3602 41.5771C73.1734 41.9282 73.08 42.3359 73.08 42.8001C73.08 43.2644 73.1734 43.6721 73.3602 44.0231C73.5526 44.3742 73.8129 44.646 74.1411 44.8385C74.475 45.0253 74.8485 45.1187 75.2616 45.1187C75.8388 45.1187 76.3141 44.946 76.6876 44.6007C77.0611 44.2553 77.279 43.7882 77.3412 43.1993H74.9815V42.5708H78.1646V43.1653C78.1194 43.6523 77.9666 44.0996 77.7062 44.5072C77.4459 44.9092 77.1036 45.2292 76.6791 45.467C76.2547 45.6991 75.7822 45.8152 75.2616 45.8152C74.7127 45.8152 74.2118 45.6878 73.7591 45.433C73.3064 45.1725 72.9471 44.813 72.6811 44.3544C72.4208 43.8957 72.2906 43.3777 72.2906 42.8001C72.2906 42.2226 72.4208 41.7045 72.6811 41.2459C72.9471 40.7816 73.3064 40.4221 73.7591 40.1673C74.2118 39.9069 74.7127 39.7766 75.2616 39.7766C75.8897 39.7766 76.4443 39.9323 76.9253 40.2437C77.412 40.5552 77.7657 40.994 77.9864 41.5602H77.0611Z" fill="#333333"/>
<path d="M82.5049 39.8446V45.7642H81.7325V39.8446H82.5049Z" fill="#333333"/>
<path d="M91.0197 45.7642H90.2472L87.1404 41.0506V45.7642H86.368V39.8361H87.1404L90.2472 44.5412V39.8361H91.0197V45.7642Z" fill="#333333"/>
<path d="M95.6554 40.4731V42.4519H97.8115V43.0889H95.6554V45.1272H98.0661V45.7642H94.883V39.8361H98.0661V40.4731H95.6554Z" fill="#333333"/>
<path d="M102.554 40.4731V42.4519H104.71V43.0889H102.554V45.1272H104.965V45.7642H101.781V39.8361H104.965V40.4731H102.554Z" fill="#333333"/>
<path d="M111.795 45.7642L110.386 43.3437H109.452V45.7642H108.68V39.8446H110.59C111.037 39.8446 111.413 39.921 111.719 40.0739C112.03 40.2268 112.262 40.4334 112.415 40.6939C112.568 40.9543 112.644 41.2516 112.644 41.5856C112.644 41.9933 112.525 42.3528 112.288 42.6643C112.056 42.9757 111.705 43.1823 111.235 43.2842L112.721 45.7642H111.795ZM109.452 42.7237H110.59C111.009 42.7237 111.323 42.6218 111.532 42.418C111.742 42.2085 111.846 41.931 111.846 41.5856C111.846 41.2346 111.742 40.9628 111.532 40.7703C111.328 40.5778 111.014 40.4815 110.59 40.4815H109.452V42.7237Z" fill="#333333"/>
<path d="M117.163 39.8446V45.7642H116.391V39.8446H117.163Z" fill="#333333"/>
<path d="M125.678 45.7642H124.906L121.799 41.0506V45.7642H121.026V39.8361H121.799L124.906 44.5412V39.8361H125.678V45.7642Z" fill="#333333"/>
<path d="M134.023 41.5602C133.859 41.2148 133.622 40.9487 133.31 40.7618C132.999 40.5693 132.637 40.4731 132.224 40.4731C131.811 40.4731 131.437 40.5693 131.103 40.7618C130.775 40.9487 130.515 41.2204 130.322 41.5771C130.136 41.9282 130.042 42.3359 130.042 42.8001C130.042 43.2644 130.136 43.6721 130.322 44.0231C130.515 44.3742 130.775 44.646 131.103 44.8385C131.437 45.0253 131.811 45.1187 132.224 45.1187C132.801 45.1187 133.276 44.946 133.65 44.6007C134.023 44.2553 134.241 43.7882 134.303 43.1993H131.944V42.5708H135.127V43.1653C135.082 43.6523 134.929 44.0996 134.668 44.5072C134.408 44.9092 134.066 45.2292 133.641 45.467C133.217 45.6991 132.744 45.8152 132.224 45.8152C131.675 45.8152 131.174 45.6878 130.721 45.433C130.269 45.1725 129.909 44.813 129.643 44.3544C129.383 43.8957 129.253 43.3777 129.253 42.8001C129.253 42.2226 129.383 41.7045 129.643 41.2459C129.909 40.7816 130.269 40.4221 130.721 40.1673C131.174 39.9069 131.675 39.7766 132.224 39.7766C132.852 39.7766 133.406 39.9323 133.887 40.2437C134.374 40.5552 134.728 40.994 134.949 41.5602H134.023Z" fill="#333333"/>
<path d="M149.506 39.887V45.7642H148.733V41.3818L146.781 45.7642H146.238L144.277 41.3733V45.7642H143.504V39.887H144.336L146.509 44.745L148.682 39.887H149.506Z" fill="#333333"/>
<path d="M156.859 44.4478H154.279L153.804 45.7642H152.989L155.128 39.8785H156.019L158.15 45.7642H157.335L156.859 44.4478ZM156.639 43.8193L155.569 40.8298L154.5 43.8193H156.639Z" fill="#333333"/>
<path d="M166.28 45.7642H165.508L162.401 41.0506V45.7642H161.628V39.8361H162.401L165.508 44.5412V39.8361H166.28V45.7642Z" fill="#333333"/>
<path d="M173.641 44.4478H171.06L170.585 45.7642H169.77L171.909 39.8785H172.8L174.931 45.7642H174.116L173.641 44.4478ZM173.42 43.8193L172.35 40.8298L171.281 43.8193H173.42Z" fill="#333333"/>
<path d="M182.892 41.5602C182.728 41.2148 182.49 40.9487 182.179 40.7618C181.867 40.5693 181.505 40.4731 181.092 40.4731C180.679 40.4731 180.305 40.5693 179.972 40.7618C179.643 40.9487 179.383 41.2204 179.191 41.5771C179.004 41.9282 178.911 42.3359 178.911 42.8001C178.911 43.2644 179.004 43.6721 179.191 44.0231C179.383 44.3742 179.643 44.646 179.972 44.8385C180.305 45.0253 180.679 45.1187 181.092 45.1187C181.669 45.1187 182.145 44.946 182.518 44.6007C182.892 44.2553 183.109 43.7882 183.172 43.1993H180.812V42.5708H183.995V43.1653C183.95 43.6523 183.797 44.0996 183.537 44.5072C183.276 44.9092 182.934 45.2292 182.51 45.467C182.085 45.6991 181.613 45.8152 181.092 45.8152C180.543 45.8152 180.042 45.6878 179.59 45.433C179.137 45.1725 178.778 44.813 178.512 44.3544C178.251 43.8957 178.121 43.3777 178.121 42.8001C178.121 42.2226 178.251 41.7045 178.512 41.2459C178.778 40.7816 179.137 40.4221 179.59 40.1673C180.042 39.9069 180.543 39.7766 181.092 39.7766C181.72 39.7766 182.275 39.9323 182.756 40.2437C183.242 40.5552 183.596 40.994 183.817 41.5602H182.892Z" fill="#333333"/>
<path d="M188.335 40.4731V42.4519H190.491V43.0889H188.335V45.1272H190.746V45.7642H187.563V39.8361H190.746V40.4731H188.335Z" fill="#333333"/>
<path d="M197.577 45.7642L196.168 43.3437H195.234V45.7642H194.462V39.8446H196.371C196.818 39.8446 197.195 39.921 197.5 40.0739C197.812 40.2268 198.044 40.4334 198.196 40.6939C198.349 40.9543 198.426 41.2516 198.426 41.5856C198.426 41.9933 198.307 42.3528 198.069 42.6643C197.837 42.9757 197.486 43.1823 197.017 43.2842L198.502 45.7642H197.577ZM195.234 42.7237H196.371C196.79 42.7237 197.104 42.6218 197.314 42.418C197.523 42.2085 197.628 41.931 197.628 41.5856C197.628 41.2346 197.523 40.9628 197.314 40.7703C197.11 40.5778 196.796 40.4815 196.371 40.4815H195.234V42.7237Z" fill="#333333"/>
<path d="M157.15 4.67117L148.52 37.794H138.758L133.477 15.9952L128.006 37.794H118.244L109.85 4.67117H118.48L123.243 28.7819L129.138 4.67117H138.004L143.663 28.7819L148.473 4.67117H157.15Z" fill="#F25042"/>
<path d="M161.949 8.72895C160.534 8.72895 159.371 8.32003 158.459 7.50218C157.579 6.65288 157.138 5.61484 157.138 4.38807C157.138 3.12984 157.579 2.0918 158.459 1.27396C159.371 0.424652 160.534 0 161.949 0C163.332 0 164.464 0.424652 165.344 1.27396C166.256 2.0918 166.712 3.12984 166.712 4.38807C166.712 5.61484 166.256 6.65288 165.344 7.50218C164.464 8.32003 163.332 8.72895 161.949 8.72895ZM165.957 11.4656V37.794H157.893V11.4656H165.957Z" fill="#F25042"/>
<path d="M176.564 2.8782V37.794H168.5V2.8782H176.564Z" fill="#F25042"/>
<path d="M189.812 38.1715C187.517 38.1715 185.473 37.7783 183.681 36.9919C181.889 36.2055 180.474 35.136 179.437 33.7834C178.399 32.3993 177.818 30.858 177.692 29.1594H185.662C185.756 30.0716 186.181 30.8108 186.935 31.377C187.69 31.9432 188.617 32.2263 189.717 32.2263C190.723 32.2263 191.494 32.0376 192.028 31.6601C192.594 31.2512 192.877 30.7322 192.877 30.1031C192.877 29.3481 192.484 28.7977 191.698 28.4517C190.912 28.0742 189.639 27.6653 187.878 27.2249C185.992 26.7845 184.42 26.3284 183.162 25.8566C181.905 25.3533 180.82 24.5826 179.908 23.5446C178.997 22.4751 178.541 21.0438 178.541 19.2509C178.541 17.741 178.95 16.3727 179.767 15.1459C180.616 13.8877 181.842 12.8968 183.445 12.1733C185.08 11.4499 187.014 11.0881 189.246 11.0881C192.547 11.0881 195.141 11.906 197.027 13.5417C198.945 15.1774 200.045 17.3478 200.328 20.053H192.877C192.751 19.1408 192.342 18.4173 191.651 17.8826C190.991 17.3478 190.11 17.0804 189.01 17.0804C188.067 17.0804 187.344 17.2692 186.841 17.6466C186.338 17.9926 186.086 18.4802 186.086 19.1093C186.086 19.8643 186.479 20.4305 187.265 20.8079C188.083 21.1854 189.34 21.5629 191.038 21.9403C192.987 22.4436 194.575 22.9469 195.801 23.4502C197.027 23.922 198.096 24.7084 199.008 25.8094C199.951 26.8789 200.438 28.3258 200.469 30.1503C200.469 31.6916 200.029 33.0756 199.149 34.3024C198.3 35.4977 197.058 36.4414 195.423 37.1334C193.82 37.8254 191.95 38.1715 189.812 38.1715Z" fill="#F25042"/>
<path d="M214.08 38.1715C211.502 38.1715 209.176 37.621 207.101 36.52C205.057 35.4191 203.438 33.8463 202.243 31.8017C201.08 29.7571 200.499 27.3664 200.499 24.6298C200.499 21.9246 201.096 19.5497 202.291 17.5051C203.485 15.429 205.12 13.8405 207.195 12.7395C209.27 11.6386 211.596 11.0881 214.174 11.0881C216.752 11.0881 219.079 11.6386 221.154 12.7395C223.229 13.8405 224.864 15.429 226.058 17.5051C227.253 19.5497 227.85 21.9246 227.85 24.6298C227.85 27.335 227.237 29.7256 226.011 31.8017C224.816 33.8463 223.166 35.4191 221.059 36.52C218.984 37.621 216.658 38.1715 214.08 38.1715ZM214.08 31.1883C215.621 31.1883 216.925 30.6221 217.994 29.4897C219.095 28.3573 219.645 26.7373 219.645 24.6298C219.645 22.5223 219.11 20.9023 218.041 19.7699C217.004 18.6375 215.715 18.0713 214.174 18.0713C212.602 18.0713 211.298 18.6375 210.26 19.7699C209.223 20.8708 208.704 22.4908 208.704 24.6298C208.704 26.7373 209.207 28.3573 210.213 29.4897C211.251 30.6221 212.54 31.1883 214.08 31.1883Z" fill="#F25042"/>
<path d="M244.861 11.1825C247.942 11.1825 250.394 12.1891 252.218 14.2022C254.073 16.1839 255 18.9206 255 22.4122V42.2764H246.983V23.4974C246.983 21.7359 246.527 20.3675 245.616 19.3924C244.704 18.4173 243.478 17.9297 241.937 17.9297C240.397 17.9297 239.171 18.4173 238.259 19.3924C237.347 20.3675 236.891 21.7359 236.891 23.4974V37.794H228.827V11.4656H236.891V14.9572C237.709 13.7933 238.809 12.8811 240.192 12.2205C241.576 11.5285 243.132 11.1825 244.861 11.1825Z" fill="#F25042"/>
<path d="M37.4907 4.67117V38.1715H29.4267V17.9297L22.0228 37.794H15.515L8.06403 17.8826V42.2764H0L0 4.67117H9.52593L18.8161 27.6024L28.0119 4.67117H37.4907Z" fill="#020826"/>
<path d="M38.3852 24.5826C38.3852 21.8774 38.8882 19.5025 39.8943 17.4579C40.9317 15.4133 42.3308 13.8405 44.0913 12.7395C45.8519 11.6386 47.8168 11.0881 49.9861 11.0881C51.841 11.0881 53.4601 11.4656 54.8434 12.2205C56.2581 12.9755 57.3428 13.9663 58.0973 15.1931V11.4656H66.1613V37.794H58.0973V34.0665C57.3113 35.2933 56.211 36.2841 54.7962 37.0391C53.4129 37.794 51.7938 38.1715 49.9389 38.1715C47.8011 38.1715 45.8519 37.621 44.0913 36.52C42.3308 35.3876 40.9317 33.7991 39.8943 31.7545C38.8882 29.6784 38.3852 27.2878 38.3852 24.5826ZM58.0973 24.6298C58.0973 22.6166 57.5314 21.0281 56.3996 19.8643C55.2992 18.7004 53.9474 18.1185 52.344 18.1185C50.7406 18.1185 49.373 18.7004 48.2413 19.8643C47.1409 20.9967 46.5907 22.5694 46.5907 24.5826C46.5907 26.5958 47.1409 28.2 48.2413 29.3953C49.373 30.5592 50.7406 31.1411 52.344 31.1411C53.9474 31.1411 55.2992 30.5592 56.3996 29.3953C57.5314 28.2315 58.0973 26.643 58.0973 24.6298Z" fill="#020826"/>
<path d="M76.7583 15.8537C77.7014 14.4067 78.8804 13.2743 80.2951 12.4564C81.7099 11.6071 83.2818 11.1825 85.0109 11.1825V19.7227H82.7945C80.7824 19.7227 79.2734 20.1631 78.2673 21.0438C77.2613 21.8931 76.7583 23.403 76.7583 25.5735V37.794H68.6942V11.4656H76.7583V15.8537Z" fill="#020826"/>
<path d="M101.645 37.794L93.6283 26.753V37.794H85.5643V0H93.6283V22.1762L101.598 11.4656H111.548L100.608 24.677L111.643 37.794H101.645Z" fill="#020826"/>
</svg>
