<svg width="267" height="58" viewBox="0 0 267 58" fill="none" xmlns="http://www.w3.org/2000/svg">
<g filter="url(#filter0_d_113_59)">
<path d="M63.9382 46.4731V48.4519H66.0942V49.0889H63.9382V51.1272H66.3489V51.7642H63.1657V45.8361H66.3489V46.4731H63.9382Z" fill="#FFFFFE"/>
<path d="M74.7159 51.7642H73.9435L70.8367 47.0506V51.7642H70.0642V45.8361H70.8367L73.9435 50.5412V45.8361H74.7159V51.7642Z" fill="#FFFFFE"/>
<path d="M83.0611 47.5602C82.897 47.2148 82.6593 46.9487 82.3481 46.7618C82.0369 46.5693 81.6747 46.4731 81.2616 46.4731C80.8485 46.4731 80.475 46.5693 80.1411 46.7618C79.8129 46.9487 79.5526 47.2204 79.3602 47.5771C79.1734 47.9282 79.08 48.3359 79.08 48.8001C79.08 49.2644 79.1734 49.6721 79.3602 50.0231C79.5526 50.3742 79.8129 50.646 80.1411 50.8385C80.475 51.0253 80.8485 51.1187 81.2616 51.1187C81.8388 51.1187 82.3141 50.946 82.6876 50.6007C83.0611 50.2553 83.279 49.7882 83.3412 49.1993H80.9815V48.5708H84.1646V49.1653C84.1194 49.6523 83.9666 50.0996 83.7062 50.5072C83.4459 50.9092 83.1036 51.2292 82.6791 51.467C82.2547 51.6991 81.7822 51.8152 81.2616 51.8152C80.7127 51.8152 80.2118 51.6878 79.7591 51.433C79.3064 51.1725 78.9471 50.813 78.6811 50.3544C78.4208 49.8957 78.2906 49.3777 78.2906 48.8001C78.2906 48.2226 78.4208 47.7045 78.6811 47.2459C78.9471 46.7816 79.3064 46.4221 79.7591 46.1673C80.2118 45.9069 80.7127 45.7766 81.2616 45.7766C81.8897 45.7766 82.4443 45.9323 82.9253 46.2437C83.412 46.5552 83.7657 46.994 83.9864 47.5602H83.0611Z" fill="#FFFFFE"/>
<path d="M88.5049 45.8446V51.7642H87.7325V45.8446H88.5049Z" fill="#FFFFFE"/>
<path d="M97.0197 51.7642H96.2472L93.1404 47.0506V51.7642H92.368V45.8361H93.1404L96.2472 50.5412V45.8361H97.0197V51.7642Z" fill="#FFFFFE"/>
<path d="M101.655 46.4731V48.4519H103.811V49.0889H101.655V51.1272H104.066V51.7642H100.883V45.8361H104.066V46.4731H101.655Z" fill="#FFFFFE"/>
<path d="M108.554 46.4731V48.4519H110.71V49.0889H108.554V51.1272H110.965V51.7642H107.781V45.8361H110.965V46.4731H108.554Z" fill="#FFFFFE"/>
<path d="M117.795 51.7642L116.386 49.3437H115.452V51.7642H114.68V45.8446H116.59C117.037 45.8446 117.413 45.921 117.719 46.0739C118.03 46.2268 118.262 46.4334 118.415 46.6939C118.568 46.9543 118.644 47.2516 118.644 47.5856C118.644 47.9933 118.525 48.3528 118.288 48.6643C118.056 48.9757 117.705 49.1823 117.235 49.2842L118.721 51.7642H117.795ZM115.452 48.7237H116.59C117.009 48.7237 117.323 48.6218 117.532 48.418C117.742 48.2085 117.846 47.931 117.846 47.5856C117.846 47.2346 117.742 46.9628 117.532 46.7703C117.328 46.5778 117.014 46.4815 116.59 46.4815H115.452V48.7237Z" fill="#FFFFFE"/>
<path d="M123.163 45.8446V51.7642H122.391V45.8446H123.163Z" fill="#FFFFFE"/>
<path d="M131.678 51.7642H130.906L127.799 47.0506V51.7642H127.026V45.8361H127.799L130.906 50.5412V45.8361H131.678V51.7642Z" fill="#FFFFFE"/>
<path d="M140.023 47.5602C139.859 47.2148 139.622 46.9487 139.31 46.7618C138.999 46.5693 138.637 46.4731 138.224 46.4731C137.811 46.4731 137.437 46.5693 137.103 46.7618C136.775 46.9487 136.515 47.2204 136.322 47.5771C136.136 47.9282 136.042 48.3359 136.042 48.8001C136.042 49.2644 136.136 49.6721 136.322 50.0231C136.515 50.3742 136.775 50.646 137.103 50.8385C137.437 51.0253 137.811 51.1187 138.224 51.1187C138.801 51.1187 139.276 50.946 139.65 50.6007C140.023 50.2553 140.241 49.7882 140.303 49.1993H137.944V48.5708H141.127V49.1653C141.082 49.6523 140.929 50.0996 140.668 50.5072C140.408 50.9092 140.066 51.2292 139.641 51.467C139.217 51.6991 138.744 51.8152 138.224 51.8152C137.675 51.8152 137.174 51.6878 136.721 51.433C136.269 51.1725 135.909 50.813 135.643 50.3544C135.383 49.8957 135.253 49.3777 135.253 48.8001C135.253 48.2226 135.383 47.7045 135.643 47.2459C135.909 46.7816 136.269 46.4221 136.721 46.1673C137.174 45.9069 137.675 45.7766 138.224 45.7766C138.852 45.7766 139.406 45.9323 139.887 46.2437C140.374 46.5552 140.728 46.994 140.949 47.5602H140.023Z" fill="#FFFFFE"/>
<path d="M155.506 45.887V51.7642H154.733V47.3818L152.781 51.7642H152.238L150.277 47.3733V51.7642H149.504V45.887H150.336L152.509 50.745L154.682 45.887H155.506Z" fill="#FFFFFE"/>
<path d="M162.859 50.4478H160.279L159.804 51.7642H158.989L161.128 45.8785H162.019L164.15 51.7642H163.335L162.859 50.4478ZM162.639 49.8193L161.569 46.8298L160.5 49.8193H162.639Z" fill="#FFFFFE"/>
<path d="M172.28 51.7642H171.508L168.401 47.0506V51.7642H167.628V45.8361H168.401L171.508 50.5412V45.8361H172.28V51.7642Z" fill="#FFFFFE"/>
<path d="M179.641 50.4478H177.06L176.585 51.7642H175.77L177.909 45.8785H178.8L180.931 51.7642H180.116L179.641 50.4478ZM179.42 49.8193L178.35 46.8298L177.281 49.8193H179.42Z" fill="#FFFFFE"/>
<path d="M188.892 47.5602C188.728 47.2148 188.49 46.9487 188.179 46.7618C187.867 46.5693 187.505 46.4731 187.092 46.4731C186.679 46.4731 186.305 46.5693 185.972 46.7618C185.643 46.9487 185.383 47.2204 185.191 47.5771C185.004 47.9282 184.911 48.3359 184.911 48.8001C184.911 49.2644 185.004 49.6721 185.191 50.0231C185.383 50.3742 185.643 50.646 185.972 50.8385C186.305 51.0253 186.679 51.1187 187.092 51.1187C187.669 51.1187 188.145 50.946 188.518 50.6007C188.892 50.2553 189.109 49.7882 189.172 49.1993H186.812V48.5708H189.995V49.1653C189.95 49.6523 189.797 50.0996 189.537 50.5072C189.276 50.9092 188.934 51.2292 188.51 51.467C188.085 51.6991 187.613 51.8152 187.092 51.8152C186.543 51.8152 186.042 51.6878 185.59 51.433C185.137 51.1725 184.778 50.813 184.512 50.3544C184.251 49.8957 184.121 49.3777 184.121 48.8001C184.121 48.2226 184.251 47.7045 184.512 47.2459C184.778 46.7816 185.137 46.4221 185.59 46.1673C186.042 45.9069 186.543 45.7766 187.092 45.7766C187.72 45.7766 188.275 45.9323 188.756 46.2437C189.242 46.5552 189.596 46.994 189.817 47.5602H188.892Z" fill="#FFFFFE"/>
<path d="M194.335 46.4731V48.4519H196.491V49.0889H194.335V51.1272H196.746V51.7642H193.563V45.8361H196.746V46.4731H194.335Z" fill="#FFFFFE"/>
<path d="M203.577 51.7642L202.168 49.3437H201.234V51.7642H200.462V45.8446H202.371C202.818 45.8446 203.195 45.921 203.5 46.0739C203.812 46.2268 204.044 46.4334 204.196 46.6939C204.349 46.9543 204.426 47.2516 204.426 47.5856C204.426 47.9933 204.307 48.3528 204.069 48.6643C203.837 48.9757 203.486 49.1823 203.017 49.2842L204.502 51.7642H203.577ZM201.234 48.7237H202.371C202.79 48.7237 203.104 48.6218 203.314 48.418C203.523 48.2085 203.628 47.931 203.628 47.5856C203.628 47.2346 203.523 46.9628 203.314 46.7703C203.11 46.5778 202.796 46.4815 202.371 46.4815H201.234V48.7237Z" fill="#FFFFFE"/>
<path d="M163.15 10.6712L154.52 43.794H144.758L139.477 21.9952L134.006 43.794H124.244L115.85 10.6712H124.48L129.243 34.7819L135.138 10.6712H144.004L149.663 34.7819L154.473 10.6712H163.15Z" fill="#F25042"/>
<path d="M167.949 14.7289C166.534 14.7289 165.371 14.32 164.459 13.5022C163.579 12.6529 163.138 11.6148 163.138 10.3881C163.138 9.12984 163.579 8.0918 164.459 7.27396C165.371 6.42465 166.534 6 167.949 6C169.332 6 170.464 6.42465 171.344 7.27396C172.256 8.0918 172.712 9.12984 172.712 10.3881C172.712 11.6148 172.256 12.6529 171.344 13.5022C170.464 14.32 169.332 14.7289 167.949 14.7289ZM171.957 17.4656V43.794H163.893V17.4656H171.957Z" fill="#F25042"/>
<path d="M182.564 8.8782V43.794H174.5V8.8782H182.564Z" fill="#F25042"/>
<path d="M195.812 44.1715C193.517 44.1715 191.473 43.7783 189.681 42.9919C187.889 42.2055 186.474 41.136 185.437 39.7834C184.399 38.3993 183.818 36.858 183.692 35.1594H191.662C191.756 36.0716 192.181 36.8108 192.935 37.377C193.69 37.9432 194.617 38.2263 195.717 38.2263C196.723 38.2263 197.494 38.0376 198.028 37.6601C198.594 37.2512 198.877 36.7322 198.877 36.1031C198.877 35.3481 198.484 34.7977 197.698 34.4517C196.912 34.0742 195.639 33.6653 193.878 33.2249C191.992 32.7845 190.42 32.3284 189.162 31.8566C187.905 31.3533 186.82 30.5826 185.908 29.5446C184.997 28.4751 184.541 27.0438 184.541 25.2509C184.541 23.741 184.95 22.3727 185.767 21.1459C186.616 19.8877 187.842 18.8968 189.445 18.1733C191.08 17.4499 193.014 17.0881 195.246 17.0881C198.547 17.0881 201.141 17.906 203.027 19.5417C204.945 21.1774 206.045 23.3478 206.328 26.053H198.877C198.751 25.1408 198.342 24.4173 197.651 23.8826C196.991 23.3478 196.11 23.0804 195.01 23.0804C194.067 23.0804 193.344 23.2692 192.841 23.6466C192.338 23.9926 192.086 24.4802 192.086 25.1093C192.086 25.8643 192.479 26.4305 193.265 26.8079C194.083 27.1854 195.34 27.5629 197.038 27.9403C198.987 28.4436 200.575 28.9469 201.801 29.4502C203.027 29.922 204.096 30.7084 205.008 31.8094C205.951 32.8789 206.438 34.3258 206.469 36.1503C206.469 37.6916 206.029 39.0756 205.149 40.3024C204.3 41.4977 203.058 42.4414 201.423 43.1334C199.82 43.8254 197.95 44.1715 195.812 44.1715Z" fill="#F25042"/>
<path d="M220.08 44.1715C217.502 44.1715 215.176 43.621 213.101 42.52C211.057 41.4191 209.438 39.8463 208.243 37.8017C207.08 35.7571 206.499 33.3664 206.499 30.6298C206.499 27.9246 207.096 25.5497 208.291 23.5051C209.485 21.429 211.12 19.8405 213.195 18.7395C215.27 17.6386 217.596 17.0881 220.174 17.0881C222.752 17.0881 225.079 17.6386 227.154 18.7395C229.229 19.8405 230.864 21.429 232.058 23.5051C233.253 25.5497 233.85 27.9246 233.85 30.6298C233.85 33.335 233.237 35.7256 232.011 37.8017C230.816 39.8463 229.166 41.4191 227.059 42.52C224.984 43.621 222.658 44.1715 220.08 44.1715ZM220.08 37.1883C221.621 37.1883 222.925 36.6221 223.994 35.4897C225.095 34.3573 225.645 32.7373 225.645 30.6298C225.645 28.5223 225.11 26.9023 224.041 25.7699C223.004 24.6375 221.715 24.0713 220.174 24.0713C218.602 24.0713 217.298 24.6375 216.26 25.7699C215.223 26.8708 214.704 28.4908 214.704 30.6298C214.704 32.7373 215.207 34.3573 216.213 35.4897C217.251 36.6221 218.54 37.1883 220.08 37.1883Z" fill="#F25042"/>
<path d="M250.861 17.1825C253.942 17.1825 256.394 18.1891 258.218 20.2022C260.073 22.1839 261 24.9206 261 28.4122V48.2764H252.983V29.4974C252.983 27.7359 252.527 26.3675 251.616 25.3924C250.704 24.4173 249.478 23.9297 247.937 23.9297C246.397 23.9297 245.171 24.4173 244.259 25.3924C243.347 26.3675 242.891 27.7359 242.891 29.4974V43.794H234.827V17.4656H242.891V20.9572C243.709 19.7933 244.809 18.8811 246.192 18.2205C247.576 17.5285 249.132 17.1825 250.861 17.1825Z" fill="#F25042"/>
<path d="M43.4907 10.6712V44.1715H35.4267V23.9297L28.0228 43.794H21.515L14.064 23.8826V48.2764H6L6 10.6712H15.5259L24.8161 33.6024L34.0119 10.6712H43.4907Z" fill="#020826"/>
<path d="M44.3852 30.5826C44.3852 27.8774 44.8882 25.5025 45.8943 23.4579C46.9317 21.4133 48.3308 19.8405 50.0913 18.7395C51.8519 17.6386 53.8168 17.0881 55.9861 17.0881C57.841 17.0881 59.4601 17.4656 60.8434 18.2205C62.2581 18.9755 63.3428 19.9663 64.0973 21.1931V17.4656H72.1613V43.794H64.0973V40.0665C63.3113 41.2933 62.211 42.2841 60.7962 43.0391C59.4129 43.794 57.7938 44.1715 55.9389 44.1715C53.8011 44.1715 51.8519 43.621 50.0913 42.52C48.3308 41.3876 46.9317 39.7991 45.8943 37.7545C44.8882 35.6784 44.3852 33.2878 44.3852 30.5826ZM64.0973 30.6298C64.0973 28.6166 63.5314 27.0281 62.3996 25.8643C61.2992 24.7004 59.9474 24.1185 58.344 24.1185C56.7406 24.1185 55.373 24.7004 54.2413 25.8643C53.1409 26.9967 52.5907 28.5694 52.5907 30.5826C52.5907 32.5958 53.1409 34.2 54.2413 35.3953C55.373 36.5592 56.7406 37.1411 58.344 37.1411C59.9474 37.1411 61.2992 36.5592 62.3996 35.3953C63.5314 34.2315 64.0973 32.643 64.0973 30.6298Z" fill="#020826"/>
<path d="M82.7583 21.8537C83.7014 20.4067 84.8804 19.2743 86.2951 18.4564C87.7099 17.6071 89.2818 17.1825 91.0109 17.1825V25.7227H88.7945C86.7824 25.7227 85.2734 26.1631 84.2673 27.0438C83.2613 27.8931 82.7583 29.403 82.7583 31.5735V43.794H74.6942V17.4656H82.7583V21.8537Z" fill="#020826"/>
<path d="M107.645 43.794L99.6283 32.753V43.794H91.5643V6H99.6283V28.1762L107.598 17.4656H117.548L106.608 30.677L117.643 43.794H107.645Z" fill="#020826"/>
</g>
<defs>
<filter id="filter0_d_113_59" x="0" y="0" width="267" height="57.8152" filterUnits="userSpaceOnUse" color-interpolation-filters="sRGB">
<feFlood flood-opacity="0" result="BackgroundImageFix"/>
<feColorMatrix in="SourceAlpha" type="matrix" values="0 0 0 0 0 0 0 0 0 0 0 0 0 0 0 0 0 0 127 0" result="hardAlpha"/>
<feOffset/>
<feGaussianBlur stdDeviation="3"/>
<feComposite in2="hardAlpha" operator="out"/>
<feColorMatrix type="matrix" values="0 0 0 0 1 0 0 0 0 1 0 0 0 0 1 0 0 0 0.5 0"/>
<feBlend mode="normal" in2="BackgroundImageFix" result="effect1_dropShadow_113_59"/>
<feBlend mode="normal" in="SourceGraphic" in2="effect1_dropShadow_113_59" result="shape"/>
</filter>
</defs>
</svg>
