<svg width="255" height="52" viewBox="0 0 255 52" fill="none" xmlns="http://www.w3.org/2000/svg">
<path d="M157.15 4.67117L148.52 37.794H138.758L133.477 15.9952L128.006 37.794H118.244L109.85 4.67117H118.48L123.243 28.7819L129.138 4.67117H138.004L143.663 28.7819L148.473 4.67117H157.15Z" fill="#F25042"/>
<path d="M161.949 8.72895C160.534 8.72895 159.371 8.32003 158.459 7.50218C157.579 6.65288 157.138 5.61484 157.138 4.38807C157.138 3.12984 157.579 2.0918 158.459 1.27396C159.371 0.424652 160.534 0 161.949 0C163.332 0 164.464 0.424652 165.344 1.27396C166.256 2.0918 166.712 3.12984 166.712 4.38807C166.712 5.61484 166.256 6.65288 165.344 7.50218C164.464 8.32003 163.332 8.72895 161.949 8.72895ZM165.957 11.4656V37.794H157.893V11.4656H165.957Z" fill="#F25042"/>
<path d="M176.564 2.8782V37.794H168.5V2.8782H176.564Z" fill="#F25042"/>
<path d="M189.812 38.1715C187.517 38.1715 185.473 37.7783 183.681 36.9919C181.889 36.2055 180.474 35.136 179.437 33.7834C178.399 32.3993 177.818 30.858 177.692 29.1594H185.662C185.756 30.0716 186.181 30.8108 186.935 31.377C187.69 31.9432 188.617 32.2263 189.717 32.2263C190.723 32.2263 191.494 32.0376 192.028 31.6601C192.594 31.2512 192.877 30.7322 192.877 30.1031C192.877 29.3481 192.484 28.7977 191.698 28.4517C190.912 28.0742 189.639 27.6653 187.878 27.2249C185.992 26.7845 184.42 26.3284 183.162 25.8566C181.905 25.3533 180.82 24.5826 179.908 23.5446C178.997 22.4751 178.541 21.0438 178.541 19.2509C178.541 17.741 178.95 16.3727 179.767 15.1459C180.616 13.8877 181.842 12.8968 183.445 12.1733C185.08 11.4499 187.014 11.0881 189.246 11.0881C192.547 11.0881 195.141 11.906 197.027 13.5417C198.945 15.1774 200.045 17.3478 200.328 20.053H192.877C192.751 19.1408 192.342 18.4173 191.651 17.8826C190.991 17.3478 190.11 17.0804 189.01 17.0804C188.067 17.0804 187.344 17.2692 186.841 17.6466C186.338 17.9926 186.086 18.4802 186.086 19.1093C186.086 19.8643 186.479 20.4305 187.265 20.8079C188.083 21.1854 189.34 21.5629 191.038 21.9403C192.987 22.4436 194.575 22.9469 195.801 23.4502C197.027 23.922 198.096 24.7084 199.008 25.8094C199.951 26.8789 200.438 28.3258 200.469 30.1503C200.469 31.6916 200.029 33.0756 199.149 34.3024C198.3 35.4977 197.058 36.4414 195.423 37.1334C193.82 37.8254 191.95 38.1715 189.812 38.1715Z" fill="#F25042"/>
<path d="M214.08 38.1715C211.502 38.1715 209.176 37.621 207.101 36.52C205.057 35.4191 203.438 33.8463 202.243 31.8017C201.08 29.7571 200.499 27.3664 200.499 24.6298C200.499 21.9246 201.096 19.5497 202.291 17.5051C203.485 15.429 205.12 13.8405 207.195 12.7395C209.27 11.6386 211.596 11.0881 214.174 11.0881C216.752 11.0881 219.079 11.6386 221.154 12.7395C223.229 13.8405 224.864 15.429 226.058 17.5051C227.253 19.5497 227.85 21.9246 227.85 24.6298C227.85 27.335 227.237 29.7256 226.011 31.8017C224.816 33.8463 223.166 35.4191 221.059 36.52C218.984 37.621 216.658 38.1715 214.08 38.1715ZM214.08 31.1883C215.621 31.1883 216.925 30.6221 217.994 29.4897C219.095 28.3573 219.645 26.7373 219.645 24.6298C219.645 22.5223 219.11 20.9023 218.041 19.7699C217.004 18.6375 215.715 18.0713 214.174 18.0713C212.602 18.0713 211.298 18.6375 210.26 19.7699C209.223 20.8708 208.704 22.4908 208.704 24.6298C208.704 26.7373 209.207 28.3573 210.213 29.4897C211.251 30.6221 212.54 31.1883 214.08 31.1883Z" fill="#F25042"/>
<path d="M244.861 11.1825C247.942 11.1825 250.394 12.1891 252.218 14.2022C254.073 16.1839 255 18.9206 255 22.4122V42.2764H246.983V23.4974C246.983 21.7359 246.527 20.3675 245.616 19.3924C244.704 18.4173 243.478 17.9297 241.937 17.9297C240.397 17.9297 239.171 18.4173 238.259 19.3924C237.347 20.3675 236.891 21.7359 236.891 23.4974V37.794H228.827V11.4656H236.891V14.9572C237.709 13.7933 238.809 12.8811 240.192 12.2205C241.576 11.5285 243.132 11.1825 244.861 11.1825Z" fill="#F25042"/>
<path d="M37.4907 4.67117V38.1715H29.4267V17.9297L22.0228 37.794H15.515L8.06403 17.8826V42.2764H0L0 4.67117H9.52593L18.8161 27.6024L28.0119 4.67117H37.4907Z" fill="#020826"/>
<path d="M38.3852 24.5826C38.3852 21.8774 38.8882 19.5025 39.8943 17.4579C40.9317 15.4133 42.3308 13.8405 44.0913 12.7395C45.8519 11.6386 47.8168 11.0881 49.9861 11.0881C51.841 11.0881 53.4601 11.4656 54.8434 12.2205C56.2581 12.9755 57.3428 13.9663 58.0973 15.1931V11.4656H66.1613V37.794H58.0973V34.0665C57.3113 35.2933 56.211 36.2841 54.7962 37.0391C53.4129 37.794 51.7938 38.1715 49.9389 38.1715C47.8011 38.1715 45.8519 37.621 44.0913 36.52C42.3308 35.3876 40.9317 33.7991 39.8943 31.7545C38.8882 29.6784 38.3852 27.2878 38.3852 24.5826ZM58.0973 24.6298C58.0973 22.6166 57.5314 21.0281 56.3996 19.8643C55.2992 18.7004 53.9474 18.1185 52.344 18.1185C50.7406 18.1185 49.373 18.7004 48.2413 19.8643C47.1409 20.9967 46.5907 22.5694 46.5907 24.5826C46.5907 26.5958 47.1409 28.2 48.2413 29.3953C49.373 30.5592 50.7406 31.1411 52.344 31.1411C53.9474 31.1411 55.2992 30.5592 56.3996 29.3953C57.5314 28.2315 58.0973 26.643 58.0973 24.6298Z" fill="#020826"/>
<path d="M76.7583 15.8537C77.7014 14.4067 78.8804 13.2743 80.2951 12.4564C81.7099 11.6071 83.2818 11.1825 85.0109 11.1825V19.7227H82.7945C80.7824 19.7227 79.2734 20.1631 78.2673 21.0438C77.2613 21.8931 76.7583 23.403 76.7583 25.5735V37.794H68.6942V11.4656H76.7583V15.8537Z" fill="#020826"/>
<path d="M101.645 37.794L93.6283 26.753V37.794H85.5643V0H93.6283V22.1762L101.598 11.4656H111.548L100.608 24.677L111.643 37.794H101.645Z" fill="#020826"/>
<path d="M55.8774 40.8713V42.0773H57.8212V43.1984H55.8774V44.5063H58.0759V45.6698H54.4259V39.7077H58.0759V40.8713H55.8774Z" fill="#FFFFFE"/>
<path d="M66.8955 45.6698H65.444L63.0163 41.9923V45.6698H61.5648V39.7077H63.0163L65.444 43.4022V39.7077H66.8955V45.6698Z" fill="#FFFFFE"/>
<path d="M74.4499 41.5932C74.3423 41.395 74.1867 41.245 73.983 41.143C73.7849 41.0355 73.5501 40.9817 73.2785 40.9817C72.8088 40.9817 72.4324 41.1374 72.1495 41.4488C71.8665 41.7545 71.7251 42.165 71.7251 42.6803C71.7251 43.2295 71.8722 43.6598 72.1665 43.9712C72.4664 44.277 72.8767 44.4298 73.3973 44.4298C73.7538 44.4298 74.0537 44.3392 74.2971 44.1581C74.5461 43.9769 74.7272 43.7164 74.8403 43.3767H72.9983V42.3066H76.156V43.657C76.0485 44.0193 75.8646 44.3562 75.6043 44.6676C75.3496 44.9791 75.0242 45.231 74.6281 45.4235C74.232 45.616 73.7849 45.7123 73.2869 45.7123C72.6984 45.7123 72.1721 45.5849 71.7081 45.3301C71.2497 45.0696 70.8904 44.7101 70.6301 44.2515C70.3754 43.7929 70.2481 43.2691 70.2481 42.6803C70.2481 42.0914 70.3754 41.5677 70.6301 41.1091C70.8904 40.6448 71.2497 40.2852 71.7081 40.0304C72.1665 39.77 72.6899 39.6398 73.2785 39.6398C73.9915 39.6398 74.5913 39.8125 75.078 40.1578C75.5703 40.5032 75.8957 40.9817 76.0542 41.5932H74.4499Z" fill="#FFFFFE"/>
<path d="M80.9581 39.7077V45.6698H79.5066V39.7077H80.9581Z" fill="#FFFFFE"/>
<path d="M89.8873 45.6698H88.4358L86.0081 41.9923V45.6698H84.5566V39.7077H86.0081L88.4358 43.4022V39.7077H89.8873V45.6698Z" fill="#FFFFFE"/>
<path d="M94.9375 40.8713V42.0773H96.8814V43.1984H94.9375V44.5063H97.1361V45.6698H93.486V39.7077H97.1361V40.8713H94.9375Z" fill="#FFFFFE"/>
<path d="M102.076 40.8713V42.0773H104.02V43.1984H102.076V44.5063H104.275V45.6698H100.625V39.7077H104.275V40.8713H102.076Z" fill="#FFFFFE"/>
<path d="M110.803 45.6698L109.563 43.4192H109.215V45.6698H107.764V39.7077H110.2C110.67 39.7077 111.069 39.7898 111.397 39.954C111.731 40.1182 111.98 40.3447 112.144 40.6335C112.308 40.9166 112.39 41.2336 112.39 41.5847C112.39 41.981 112.277 42.3349 112.051 42.6463C111.83 42.9577 111.502 43.1785 111.066 43.3088L112.441 45.6698H110.803ZM109.215 42.3915H110.115C110.381 42.3915 110.579 42.3264 110.709 42.1962C110.845 42.0659 110.913 41.8819 110.913 41.6441C110.913 41.4176 110.845 41.2393 110.709 41.1091C110.579 40.9788 110.381 40.9137 110.115 40.9137H109.215V42.3915Z" fill="#FFFFFE"/>
<path d="M117.299 39.7077V45.6698H115.848V39.7077H117.299Z" fill="#FFFFFE"/>
<path d="M126.229 45.6698H124.777L122.349 41.9923V45.6698H120.898V39.7077H122.349L124.777 43.4022V39.7077H126.229V45.6698Z" fill="#FFFFFE"/>
<path d="M133.783 41.5932C133.675 41.395 133.52 41.245 133.316 41.143C133.118 41.0355 132.883 40.9817 132.611 40.9817C132.142 40.9817 131.765 41.1374 131.482 41.4488C131.2 41.7545 131.058 42.165 131.058 42.6803C131.058 43.2295 131.205 43.6598 131.499 43.9712C131.799 44.277 132.21 44.4298 132.73 44.4298C133.087 44.4298 133.387 44.3392 133.63 44.1581C133.879 43.9769 134.06 43.7164 134.173 43.3767H132.331V42.3066H135.489V43.657C135.382 44.0193 135.198 44.3562 134.937 44.6676C134.683 44.9791 134.357 45.231 133.961 45.4235C133.565 45.616 133.118 45.7123 132.62 45.7123C132.031 45.7123 131.505 45.5849 131.041 45.3301C130.583 45.0696 130.223 44.7101 129.963 44.2515C129.708 43.7929 129.581 43.2691 129.581 42.6803C129.581 42.0914 129.708 41.5677 129.963 41.1091C130.223 40.6448 130.583 40.2852 131.041 40.0304C131.499 39.77 132.023 39.6398 132.611 39.6398C133.324 39.6398 133.924 39.8125 134.411 40.1578C134.903 40.5032 135.229 40.9817 135.387 41.5932H133.783Z" fill="#FFFFFE"/>
<path d="M149.933 39.7077V45.6698H148.482V42.0943L147.149 45.6698H145.978L144.636 42.0858V45.6698H143.185V39.7077H144.9L146.572 43.8353L148.227 39.7077H149.933Z" fill="#FFFFFE"/>
<path d="M157.233 44.6167H155.009L154.653 45.6698H153.133L155.289 39.7077H156.97L159.126 45.6698H157.59L157.233 44.6167ZM156.86 43.4956L156.121 41.3129L155.391 43.4956H156.86Z" fill="#FFFFFE"/>
<path d="M167.659 45.6698H166.208L163.78 41.9923V45.6698H162.329V39.7077H163.78L166.208 43.4022V39.7077H167.659V45.6698Z" fill="#FFFFFE"/>
<path d="M174.968 44.6167H172.744L172.387 45.6698H170.868L173.024 39.7077H174.705L176.861 45.6698H175.324L174.968 44.6167ZM174.594 43.4956L173.856 41.3129L173.126 43.4956H174.594Z" fill="#FFFFFE"/>
<path d="M184.019 41.5932C183.911 41.395 183.756 41.245 183.552 41.143C183.354 41.0355 183.119 40.9817 182.848 40.9817C182.378 40.9817 182.002 41.1374 181.719 41.4488C181.436 41.7545 181.294 42.165 181.294 42.6803C181.294 43.2295 181.441 43.6598 181.736 43.9712C182.035 44.277 182.446 44.4298 182.966 44.4298C183.323 44.4298 183.623 44.3392 183.866 44.1581C184.115 43.9769 184.296 43.7164 184.409 43.3767H182.567V42.3066H185.725V43.657C185.618 44.0193 185.434 44.3562 185.173 44.6676C184.919 44.9791 184.593 45.231 184.197 45.4235C183.801 45.616 183.354 45.7123 182.856 45.7123C182.267 45.7123 181.741 45.5849 181.277 45.3301C180.819 45.0696 180.459 44.7101 180.199 44.2515C179.944 43.7929 179.817 43.2691 179.817 42.6803C179.817 42.0914 179.944 41.5677 180.199 41.1091C180.459 40.6448 180.819 40.2852 181.277 40.0304C181.736 39.77 182.259 39.6398 182.848 39.6398C183.561 39.6398 184.16 39.8125 184.647 40.1578C185.139 40.5032 185.465 40.9817 185.623 41.5932H184.019Z" fill="#FFFFFE"/>
<path d="M190.527 40.8713V42.0773H192.471V43.1984H190.527V44.5063H192.726V45.6698H189.076V39.7077H192.726V40.8713H190.527Z" fill="#FFFFFE"/>
<path d="M199.253 45.6698L198.014 43.4192H197.666V45.6698H196.215V39.7077H198.651C199.12 39.7077 199.519 39.7898 199.848 39.954C200.182 40.1182 200.431 40.3447 200.595 40.6335C200.759 40.9166 200.841 41.2336 200.841 41.5847C200.841 41.981 200.728 42.3349 200.501 42.6463C200.281 42.9577 199.952 43.1785 199.517 43.3088L200.892 45.6698H199.253ZM197.666 42.3915H198.566C198.832 42.3915 199.03 42.3264 199.16 42.1962C199.296 42.0659 199.364 41.8819 199.364 41.6441C199.364 41.4176 199.296 41.2393 199.16 41.1091C199.03 40.9788 198.832 40.9137 198.566 40.9137H197.666V42.3915Z" fill="#FFFFFE"/>
</svg>
